<svg xmlns="http://www.w3.org/2000/svg" width="512" height="512" viewBox="0 0 512 512" fill="none">
  <defs>
    <linearGradient id="bg" x1="40" y1="32" x2="470" y2="484" gradientUnits="userSpaceOnUse">
      <stop stop-color="#111827"/>
      <stop offset="1" stop-color="#020617"/>
    </linearGradient>
    <linearGradient id="road" x1="76" y1="366" x2="436" y2="366" gradientUnits="userSpaceOnUse">
      <stop stop-color="#0EA5E9"/>
      <stop offset="1" stop-color="#2563EB"/>
    </linearGradient>
    <linearGradient id="bolt" x1="216" y1="180" x2="304" y2="300" gradientUnits="userSpaceOnUse">
      <stop stop-color="#FDE047"/>
      <stop offset="1" stop-color="#F59E0B"/>
    </linearGradient>
    <linearGradient id="carPaint" x1="334" y1="198" x2="458" y2="318" gradientUnits="userSpaceOnUse">
      <stop stop-color="#1E293B"/>
      <stop offset="1" stop-color="#0F172A"/>
    </linearGradient>
  </defs>

  <rect width="512" height="512" rx="92" fill="url(#bg)"/>
  <rect x="36" y="36" width="440" height="440" rx="78" fill="none" stroke="#1E293B" stroke-width="2"/>

  <!-- Material-style elevated cards -->
  <rect x="42" y="182" width="154" height="154" rx="26" fill="#E2E8F0"/>
  <rect x="48" y="188" width="142" height="142" rx="22" fill="#CBD5E1"/>
  <rect x="54" y="194" width="130" height="130" rx="18" fill="#E5EAF2"/>

  <!-- USB connector -->
  <rect x="68" y="206" width="34" height="106" rx="8" fill="#94A3B8"/>
  <rect x="114" y="214" width="56" height="12" rx="6" fill="#475569"/>
  <rect x="114" y="238" width="56" height="12" rx="6" fill="#475569"/>
  <rect x="114" y="262" width="56" height="12" rx="6" fill="#475569"/>
  <rect x="84" y="336" width="70" height="12" rx="6" fill="#334155"/>
  <circle cx="87" cy="223" r="4" fill="#0EA5E9"/>
  <circle cx="97" cy="223" r="4" fill="#22D3EE"/>

  <!-- Data bridge line -->
  <path d="M196 258H228" stroke="#38BDF8" stroke-width="14" stroke-linecap="round"/>
  <path d="M294 258H338" stroke="#38BDF8" stroke-width="14" stroke-linecap="round"/>
  <path d="M76 366H436" stroke="url(#road)" stroke-width="10" stroke-linecap="round" opacity="0.9"/>
  <rect x="154" y="360" width="24" height="12" rx="6" fill="#93C5FD"/>
  <rect x="334" y="360" width="24" height="12" rx="6" fill="#93C5FD"/>

  <!-- Lightning mark -->
  <path d="M246 186L212 262H244L226 326L304 236H266L290 186H246Z" fill="url(#bolt)"/>
  <path d="M246 186L212 262H244L226 326L304 236H266L290 186H246Z" stroke="#FACC15" stroke-width="2"/>

  <!-- Car body (aggressive silhouette) -->
  <path d="M338 236L366 194H432L464 230V286C464 295 457 302 448 302H342C333 302 326 295 326 286V250C326 242 331 236 338 236Z"
        fill="url(#carPaint)"/>
  <path d="M360 236H446L430 208H376L360 236Z" fill="#334155"/>
  <path d="M332 246H462" stroke="#475569" stroke-width="4" opacity="0.7"/>
  <rect x="388" y="206" width="46" height="18" rx="7" fill="#0EA5E9" opacity="0.4"/>
  <rect x="344" y="252" width="100" height="26" rx="12" fill="#020617" opacity="0.45"/>

  <!-- Headlights -->
  <rect x="324" y="248" width="9" height="16" rx="4.5" fill="#22D3EE"/>
  <rect x="463" y="248" width="9" height="16" rx="4.5" fill="#22D3EE"/>

  <!-- Wheels -->
  <circle cx="364" cy="306" r="24" fill="#020617"/>
  <circle cx="364" cy="306" r="11" fill="#94A3B8"/>
  <circle cx="432" cy="306" r="24" fill="#020617"/>
  <circle cx="432" cy="306" r="11" fill="#94A3B8"/>

  <!-- Material chips -->
  <rect x="312" y="82" width="78" height="28" rx="14" fill="#1E3A8A"/>
  <text x="351" y="100" font-family="Segoe UI, Arial, sans-serif" font-size="13" text-anchor="middle" fill="#DBEAFE">CAN</text>
  <rect x="400" y="82" width="70" height="28" rx="14" fill="#0F766E"/>
  <text x="435" y="100" font-family="Segoe UI, Arial, sans-serif" font-size="13" text-anchor="middle" fill="#CCFBF1">USB</text>
</svg>
